<svg id="Capa_1" enable-background="new 0 0 512 512" height="512" viewBox="0 0 512 512" width="512" xmlns="http://www.w3.org/2000/svg"><g><g id="_x3C_Group_x3E__1_"><path d="m226 256 11.642 70.058c0 11.49-6.07 22.12-15.95 27.96l-34.78 20.54c-22.17 13.1-47.412 27.932-47.412 53.672v-41.54c0-37.7 18.48-73.01 49.46-94.49l28.41-19.72c5.41-3.74 8.63-9.9 8.63-16.48z" fill="#dfeef4"/><path d="m372.5 386.69v41.54c0-25.74-21.08-43.96-43.25-57.06l-34.78-20.54c-9.88-5.84-15.95-16.47-15.95-27.96l7.48-66.67c0 3.29.8 6.48 2.29 9.3 1.48 2.84 3.63 5.31 6.34 7.18l28.41 19.72c30.98 21.48 49.46 56.79 49.46 94.49z" fill="#dfeef4"/><path d="m440.5 445.241v-413.482h-30v409.123z" fill="#6b6867"/><path d="m71.5 445.428v-413.856h30v409.494z" fill="#6b6867"/><path d="m471.5 469.5v-20c0-8.284-6.716-15-15-15h-84-233-38l-42.552 2.5c-8.284 0-15 6.716-15 15l-.141 16.299 212.193 22.024z" fill="#f2fbff"/><path d="m141.66 147.5 10.711-50.777-12.871-54.223 119.318-11.565 113.682 11.565v82.81c0 7.52-.74 14.95-2.16 22.19 0 0-31.648 50.87-109.576 50.87s-119.104-50.87-119.104-50.87z" fill="#dfeef4"/><path d="m170.16 149.86c-1.42-7.24-2.66-17.03-2.66-24.55v-82.81l-14-11.565-14 11.565v82.81c0 7.52.74 14.95 2.16 22.19l14.57 5.976z" fill="#cfe2e8"/><g><path d="m329.164 140.164c0 40.408-32.757 73.164-73.164 73.164s-63.959-32.757-63.959-73.164c0-16.282-.571-29.215 8.424-41.37 4.569-6.174 13.02-18.181 13.02-18.181 11.983-8.57 26.66-13.613 42.515-13.613 40.408 0 73.164 32.757 73.164 73.164z" fill="#fea95c"/></g><g><path d="m326.51 159.71c-8.54 30.92-36.87 53.62-70.51 53.62-40.41 0-73.16-32.76-73.16-73.17 0-24.55 12.085-46.277 30.645-59.547-1.73 6.22-2.645 12.777-2.645 19.547 0 40.41 32.75 73.17 73.16 73.17 15.85 0 30.53-5.04 42.51-13.62z" fill="#fe9738"/></g><path d="m372.5 428.23v50.375h-227.47l1.95-48.423c0-25.74 13.6-49.57 35.77-62.67l32.727-19.071c9.88-5.84 15.95-16.47 15.95-27.96l.285-66.91c0-3.29-.8-6.48-2.29-9.3-1.48-2.84-3.63-5.31-6.34-7.18l-31.048-25.167c-24.8-17.19-34.236-29.397-39.946-58.447 11.139 0 18.071-3.616 18.071-3.616 29.841 5.291 44.979 17.64 85.84 17.64 52 0 62.34-20 114.34-20-5.71 29.05-22.5 55.11-47.3 72.3l-28.41 19.72c-5.41 3.74-8.63 9.9-8.63 16.48v61.06c0 11.49 6.07 22.12 15.95 27.96l34.78 20.54c22.171 13.099 35.771 36.929 35.771 62.669z" fill="#fec165"/><path d="m250 242v93.06c0 11.49-6.07 22.12-15.95 27.96l-34.78 20.54c-22.17 13.1-35.77 36.93-35.77 62.67v32.375h-24v-50.375c0-25.74 13.6-49.57 35.77-62.67l34.78-20.54c9.88-5.84 15.95-16.47 15.95-27.96v-61.06c0-3.29-.8-6.48-2.29-9.3-1.48-2.84-3.63-5.31-6.34-7.18l-28.41-19.72c-24.8-17.19-41.59-43.25-47.3-72.3 11.14 0 20.37.92 28.5 2.36 7.96 22.37 22.76 42.05 42.8 55.94l28.41 19.72c2.71 1.87 4.86 4.34 6.34 7.18 1.49 2.82 2.29 6.01 2.29 9.3z" fill="#fea95c"/><path d="m471.5 469.5v30c0 2.761-2.239 5-5 5h-365l-53.823-2.401c-2.761 0-5-2.239-5-5l.565-24.282 58.258-3.317z" fill="#7c7a79"/><path d="m101.5 434.5v35h-61v-20c0-8.28 6.72-15 15-15z" fill="#dfeef4"/><path d="m101.5 469.5v35h-56c-2.76 0-5-2.24-5-5v-30z" fill="#6b6867"/><path d="m461.5 42.5c5.523 0 10-4.477 10-10v-15c0-5.523-4.477-10-10-10h-360l-48.588 2.612c-5.523 0-10 4.477-10 10l-.376 6.46c0 5.523 4.477 10 10 10l48.964 5.928z" fill="#7c7a79"/><path d="m101.5 7.5v35h-51c-5.52 0-10-4.48-10-10v-15c0-5.52 4.48-10 10-10z" fill="#6b6867"/></g><path d="m461.5 48c9.649 0 17.5-7.851 17.5-17.5v-13c0-9.649-7.851-17.5-17.5-17.5h-411c-9.649 0-17.5 7.851-17.5 17.5v13c0 9.649 7.851 17.5 17.5 17.5h13.5v379h-8.5c-12.406 0-22.5 10.094-22.5 22.5v50c0 6.893 5.607 12.5 12.5 12.5h421c6.893 0 12.5-5.607 12.5-12.5 0-12.016 0-38.293 0-50 0-12.406-10.094-22.5-22.5-22.5h-8.5v-379zm-413.5-17.5v-13c0-1.379 1.121-2.5 2.5-2.5h411c1.379 0 2.5 1.121 2.5 2.5v13c0 1.379-1.121 2.5-2.5 2.5-107.597 0-303.505 0-411 0-1.379 0-2.5-1.121-2.5-2.5zm332 396.5v-40.31c0-21.171-5.521-42.082-15.969-60.475-2.046-3.602-6.625-4.862-10.226-2.817-3.602 2.046-4.863 6.624-2.817 10.226 8.294 14.602 13.036 31.015 13.866 47.768-6.395-8.913-14.618-16.563-24.309-22.288l-34.777-20.544c-7.567-4.471-12.269-12.708-12.269-21.497v-36.238l25.273 17.542c3.297 2.281 6.524 4.802 9.592 7.491 3.114 2.729 7.851 2.42 10.584-.695 2.73-3.114 2.419-7.853-.695-10.584-3.496-3.065-7.18-5.941-10.938-8.541l-28.427-19.731c-1.676-1.156-3.005-2.661-3.969-4.513-.93-1.759-1.421-3.763-1.421-5.795 0-4.121 2.017-7.976 5.406-10.319l28.406-19.717c26.315-18.24 44.21-45.592 50.387-77.018.001-.004.001-.008.002-.012 1.525-7.78 2.299-15.728 2.299-23.625v-77.308h23v379zm-88.562-342.119c20.619 13.17 32.503 37.403 29.849 62.225-3.562 1.056-6.998 2.158-10.408 3.252-9.017 2.893-17.745 5.69-28.38 7.52.041-3.244-.531-6.452-1.736-9.444-2.584-6.414-7.911-11.326-15.001-13.832-1.68-.594-3.29-1.133-4.825-1.646-5.533-1.85-9.903-3.311-11.908-5.62-2.197-2.531-2.973-5.659-2.127-8.579.441-1.524 1.734-4.248 5.441-5.364 7.14-2.158 11.54 2.2 12.057 2.747 2.772 3.055 7.495 3.299 10.567.537 3.08-2.769 3.333-7.511.564-10.592-2.25-2.503-6.463-5.641-12.032-7.24v-6.389c0-4.143-3.357-7.5-7.5-7.5s-7.5 3.357-7.5 7.5v6.439c-6.788 1.752-13.862 8.056-16.006 15.691-2.254 7.786-.308 16.229 5.208 22.583 4.691 5.403 11.081 7.54 18.479 10.013 1.458.487 2.987.999 4.583 1.562 3.059 1.081 5.105 2.862 6.085 5.294.678 1.682.812 3.648.438 5.61-3.526.228-7.27.352-11.286.352-24.826 0-39.424-4.684-54.879-9.642-3.41-1.094-6.846-2.196-10.407-3.252-4.418-37.957 26.701-72.927 65.286-72.606 1.946 0 3.854.084 5.669.249 4.114.383 7.774-2.662 8.149-6.788.376-4.125-2.663-7.773-6.788-8.149-2.267-.207-4.632-.312-7.03-.312-45.153-.072-82.505 38.069-80.597 83.724-7.897-1.614-16.78-2.782-27.372-3.121-.681-4.909-1.031-9.863-1.031-14.794v-77.309h218v77.31c0 4.931-.351 9.885-1.031 14.794-10.592.339-19.475 1.507-27.372 3.121 1.28-27.768-13.136-55.888-37.054-70.965-3.485-2.238-8.125-1.227-10.363 2.258-2.239 3.485-1.228 8.125 2.258 10.363zm-212.438-36.881h15v29.5c0 4.143 3.357 7.5 7.5 7.5s7.5-3.357 7.5-7.5v-29.5h23v77.31c0 7.896.774 15.844 2.299 23.625.001.004.001.008.002.012 6.177 31.426 24.071 58.777 50.383 77.015l28.427 19.731c1.676 1.156 3.004 2.661 3.969 4.513.93 1.759 1.421 3.763 1.421 5.795 0 4.121-2.017 7.976-5.406 10.319l-28.407 19.718c-32.992 22.873-52.688 60.5-52.688 100.652v40.31h-23v-314.5c0-4.143-3.357-7.5-7.5-7.5s-7.5 3.357-7.5 7.5v314.5h-15zm139.5 232.825v36.238c0 8.789-4.701 17.026-12.269 21.497l-34.777 20.543c-9.693 5.726-17.917 13.377-24.312 22.292 1.637-33.226 18.597-63.97 46.094-83.035zm-163 161.175h76.5v20h-84v-12.5c0-4.136 3.364-7.5 7.5-7.5zm408.5 55h-416v-20h134.84c4.143 0 7.5-3.357 7.5-7.5s-3.357-7.5-7.5-7.5h-35.84v-33.768c0-22.983 12.294-44.523 32.083-56.214l34.777-20.544c12.114-7.155 19.64-20.341 19.64-34.411 0-.646 0-60.303 0-61.063 0-4.467-1.093-8.895-3.139-12.765-2.056-3.946-5.074-7.365-8.715-9.877l-28.414-19.723c-20.485-14.199-35.154-34.689-41.989-58.388 19.227 1.03 31.941 5.109 45.296 9.394 15.873 5.093 32.287 10.359 59.461 10.359s43.588-5.266 59.461-10.358c13.354-4.284 26.069-8.363 45.296-9.394-6.835 23.698-21.505 44.189-41.993 58.391l-28.398 19.712c-7.43 5.136-11.865 13.604-11.865 22.649v61.063c0 14.07 7.525 27.256 19.64 34.411l34.777 20.545c19.788 11.69 32.082 33.23 32.082 56.213v33.768h-147.16c-4.143 0-7.5 3.357-7.5 7.5s3.357 7.5 7.5 7.5h246.16zm0-47.5v12.5h-84v-20h76.5c4.136 0 7.5 3.364 7.5 7.5zm-31-22.5h-15v-379h15z"/></g></svg>